<mxfile host="app.diagrams.net" modified="2023-04-12T09:24:28.932Z" agent="Mozilla/5.0 (Windows NT 10.0; Win64; x64) AppleWebKit/537.36 (KHTML, like Gecko) Chrome/111.0.0.0 Safari/537.36" etag="znhgtZL1uGllmqsWfqxN" version="21.1.2" type="device">
  <diagram id="61VdjfadAhDr90nPG6A9" name="Page-1">
    <mxGraphModel dx="758" dy="427" grid="1" gridSize="10" guides="1" tooltips="1" connect="1" arrows="1" fold="1" page="1" pageScale="1" pageWidth="827" pageHeight="1169" math="0" shadow="0">
      <root>
        <mxCell id="0" />
        <mxCell id="1" parent="0" />
        <mxCell id="WbfAhR3PzNlKg7V9zck_-1" style="edgeStyle=orthogonalEdgeStyle;rounded=0;orthogonalLoop=1;jettySize=auto;html=1;exitX=1;exitY=0.5;exitDx=0;exitDy=0;entryX=0;entryY=0.5;entryDx=0;entryDy=0;strokeColor=#484848;" parent="1" source="WbfAhR3PzNlKg7V9zck_-2" target="WbfAhR3PzNlKg7V9zck_-8" edge="1">
          <mxGeometry relative="1" as="geometry">
            <Array as="points" />
            <mxPoint x="247.5" y="264" as="targetPoint" />
          </mxGeometry>
        </mxCell>
        <mxCell id="WbfAhR3PzNlKg7V9zck_-2" value="" style="ellipse;fillColor=#484848;strokeColor=none;" parent="1" vertex="1">
          <mxGeometry x="20" y="145" width="30" height="30" as="geometry" />
        </mxCell>
        <mxCell id="WbfAhR3PzNlKg7V9zck_-8" value="&lt;font color=&quot;#484848&quot;&gt;&lt;b&gt;Split the text of the &lt;br&gt;anamnesis into tokens&lt;/b&gt;&lt;/font&gt;" style="html=1;align=center;verticalAlign=top;rounded=1;absoluteArcSize=1;arcSize=10;dashed=0;fillColor=#FFFFFF;strokeColor=#484848;fontFamily=Montserrat Semibold;" parent="1" vertex="1">
          <mxGeometry x="77.5" y="140" width="170" height="40" as="geometry" />
        </mxCell>
        <mxCell id="WbfAhR3PzNlKg7V9zck_-51" value="&lt;b style=&quot;color: rgb(72 , 72 , 72) ; font-family: &amp;#34;montserrat&amp;#34; ; font-size: x-small ; font-style: normal ; letter-spacing: normal ; text-align: center ; text-indent: 0px ; text-transform: none ; word-spacing: 0px&quot;&gt;For each token&lt;/b&gt;" style="edgeStyle=orthogonalEdgeStyle;rounded=0;orthogonalLoop=1;jettySize=auto;html=1;strokeColor=#484848;exitX=1.031;exitY=0.5;exitDx=0;exitDy=0;exitPerimeter=0;fontFamily=Montserrat Semibold;entryX=0.5;entryY=0;entryDx=0;entryDy=0;" parent="1" source="D_i69omSW4-4UMKgqZ6J-21" target="6UbJSReIe_Cn7X1c4ERg-2" edge="1">
          <mxGeometry x="-0.61" relative="1" as="geometry">
            <mxPoint x="135" y="210" as="sourcePoint" />
            <mxPoint x="150" y="180" as="targetPoint" />
            <Array as="points" />
            <mxPoint as="offset" />
          </mxGeometry>
        </mxCell>
        <mxCell id="D_i69omSW4-4UMKgqZ6J-5" value="" style="rhombus;strokeColor=#484848;fillColor=#FFFFFF;aspect=fixed;direction=north;rotation=90;fontFamily=Montserrat Semibold;" parent="1" vertex="1">
          <mxGeometry x="517.5" y="234" width="20" height="40" as="geometry" />
        </mxCell>
        <mxCell id="D_i69omSW4-4UMKgqZ6J-7" value="&lt;b style=&quot;border-color: var(--border-color); color: rgb(72, 72, 72); font-family: montserrat; font-size: x-small;&quot;&gt;Token isn&#39;t included&lt;br style=&quot;border-color: var(--border-color);&quot;&gt;in the dictionary&lt;/b&gt;&lt;font color=&quot;#484848&quot; face=&quot;montserrat&quot; size=&quot;1&quot;&gt;&lt;b&gt;&lt;br&gt;&lt;/b&gt;&lt;/font&gt;" style="edgeStyle=orthogonalEdgeStyle;rounded=0;orthogonalLoop=1;jettySize=auto;html=1;strokeColor=#484848;exitX=0;exitY=0.5;exitDx=0;exitDy=0;entryX=0.5;entryY=0;entryDx=0;entryDy=0;fontFamily=Montserrat Semibold;" parent="1" source="D_i69omSW4-4UMKgqZ6J-5" target="D_i69omSW4-4UMKgqZ6J-9" edge="1">
          <mxGeometry x="-0.1703" relative="1" as="geometry">
            <mxPoint x="145" y="450" as="sourcePoint" />
            <mxPoint x="210" y="480" as="targetPoint" />
            <Array as="points">
              <mxPoint x="303" y="254" />
            </Array>
            <mxPoint as="offset" />
          </mxGeometry>
        </mxCell>
        <mxCell id="D_i69omSW4-4UMKgqZ6J-8" value="&lt;b style=&quot;border-color: var(--border-color); color: rgb(72, 72, 72); font-family: montserrat; font-size: x-small;&quot;&gt;Token is included &lt;br&gt;in the dictionary&lt;/b&gt;" style="edgeStyle=orthogonalEdgeStyle;rounded=0;orthogonalLoop=1;jettySize=auto;html=1;strokeColor=#484848;exitX=1;exitY=0.5;exitDx=0;exitDy=0;entryX=-0.016;entryY=0.301;entryDx=0;entryDy=0;entryPerimeter=0;fontFamily=Montserrat Semibold;" parent="1" source="D_i69omSW4-4UMKgqZ6J-5" target="D_i69omSW4-4UMKgqZ6J-22" edge="1">
          <mxGeometry x="-0.5581" y="-10" relative="1" as="geometry">
            <mxPoint x="165" y="490" as="sourcePoint" />
            <mxPoint x="80" y="510" as="targetPoint" />
            <Array as="points">
              <mxPoint x="580" y="254" />
              <mxPoint x="580" y="430" />
              <mxPoint x="318" y="430" />
            </Array>
            <mxPoint as="offset" />
          </mxGeometry>
        </mxCell>
        <mxCell id="D_i69omSW4-4UMKgqZ6J-9" value="&lt;font color=&quot;#484848&quot;&gt;&lt;b&gt;Extract from SymDel index &lt;br&gt;of candidates for correction&lt;/b&gt;&lt;/font&gt;" style="html=1;align=center;verticalAlign=top;rounded=1;absoluteArcSize=1;arcSize=10;dashed=0;fillColor=#FFFFFF;strokeColor=#484848;fontFamily=Montserrat Semibold;" parent="1" vertex="1">
          <mxGeometry x="207.5" y="268" width="190" height="40" as="geometry" />
        </mxCell>
        <mxCell id="D_i69omSW4-4UMKgqZ6J-10" value="&lt;font data-font-src=&quot;https://fonts.googleapis.com/css?family=Montserrat+Medium&quot; color=&quot;#484848&quot;&gt;&lt;b style=&quot;&quot;&gt;Rank candidates and choose &lt;br&gt;the most suitable one using the ML model&lt;/b&gt;&lt;/font&gt;" style="html=1;align=center;verticalAlign=top;rounded=1;absoluteArcSize=1;arcSize=10;dashed=0;fillColor=#FFFFFF;strokeColor=#484848;fontFamily=Montserrat Semibold;" parent="1" vertex="1">
          <mxGeometry x="153.75" y="321" width="297.5" height="40" as="geometry" />
        </mxCell>
        <mxCell id="D_i69omSW4-4UMKgqZ6J-12" value="" style="edgeStyle=orthogonalEdgeStyle;rounded=0;orthogonalLoop=1;jettySize=auto;html=1;strokeColor=#484848;exitX=0.5;exitY=1;exitDx=0;exitDy=0;entryX=0.5;entryY=0;entryDx=0;entryDy=0;fontFamily=Montserrat Semibold;" parent="1" source="D_i69omSW4-4UMKgqZ6J-9" target="D_i69omSW4-4UMKgqZ6J-10" edge="1">
          <mxGeometry x="-0.1111" relative="1" as="geometry">
            <mxPoint x="165" y="490" as="sourcePoint" />
            <mxPoint x="220" y="533.5" as="targetPoint" />
            <Array as="points" />
            <mxPoint as="offset" />
          </mxGeometry>
        </mxCell>
        <mxCell id="D_i69omSW4-4UMKgqZ6J-13" value="&lt;font color=&quot;#484848&quot;&gt;&lt;b&gt;Assemble all the correct &lt;br&gt;tokens into result text&lt;/b&gt;&lt;/font&gt;" style="html=1;align=center;verticalAlign=top;rounded=1;absoluteArcSize=1;arcSize=10;dashed=0;fillColor=#FFFFFF;strokeColor=#484848;fontFamily=Montserrat Semibold;" parent="1" vertex="1">
          <mxGeometry x="190" y="460" width="225" height="40" as="geometry" />
        </mxCell>
        <mxCell id="D_i69omSW4-4UMKgqZ6J-14" value="" style="edgeStyle=orthogonalEdgeStyle;rounded=0;orthogonalLoop=1;jettySize=auto;html=1;strokeColor=#484848;exitX=0.5;exitY=1;exitDx=0;exitDy=0;entryX=0.5;entryY=0;entryDx=0;entryDy=0;fontFamily=Montserrat Semibold;" parent="1" source="D_i69omSW4-4UMKgqZ6J-10" target="hUnicEeS3wmVeeKwf4dj-2" edge="1">
          <mxGeometry x="-0.1111" relative="1" as="geometry">
            <mxPoint x="220" y="565" as="sourcePoint" />
            <mxPoint x="170" y="670" as="targetPoint" />
            <Array as="points">
              <mxPoint x="303" y="360" />
              <mxPoint x="303" y="360" />
            </Array>
            <mxPoint as="offset" />
          </mxGeometry>
        </mxCell>
        <mxCell id="D_i69omSW4-4UMKgqZ6J-15" value="" style="ellipse;html=1;shape=endState;fillColor=#484848;strokeColor=#484848;fontFamily=Montserrat Semibold;" parent="1" vertex="1">
          <mxGeometry x="460" y="465" width="30" height="30" as="geometry" />
        </mxCell>
        <mxCell id="D_i69omSW4-4UMKgqZ6J-16" value="" style="edgeStyle=orthogonalEdgeStyle;rounded=0;orthogonalLoop=1;jettySize=auto;html=1;strokeColor=#484848;exitX=1;exitY=0.5;exitDx=0;exitDy=0;entryX=0;entryY=0.5;entryDx=0;entryDy=0;fontFamily=Montserrat Semibold;" parent="1" source="D_i69omSW4-4UMKgqZ6J-13" target="D_i69omSW4-4UMKgqZ6J-15" edge="1">
          <mxGeometry x="-0.1111" relative="1" as="geometry">
            <mxPoint x="382.5" y="460" as="sourcePoint" />
            <mxPoint x="382.5" y="510" as="targetPoint" />
            <Array as="points" />
            <mxPoint as="offset" />
          </mxGeometry>
        </mxCell>
        <mxCell id="D_i69omSW4-4UMKgqZ6J-20" value="" style="edgeStyle=orthogonalEdgeStyle;rounded=0;orthogonalLoop=1;jettySize=auto;html=1;strokeColor=#484848;exitX=1;exitY=0.5;exitDx=0;exitDy=0;entryX=0.063;entryY=0.5;entryDx=0;entryDy=0;entryPerimeter=0;fontFamily=Montserrat Semibold;" parent="1" source="WbfAhR3PzNlKg7V9zck_-8" target="D_i69omSW4-4UMKgqZ6J-21" edge="1">
          <mxGeometry x="-0.1111" relative="1" as="geometry">
            <mxPoint x="180" y="240" as="sourcePoint" />
            <mxPoint x="135" y="200" as="targetPoint" />
            <Array as="points">
              <mxPoint x="300" y="160" />
            </Array>
            <mxPoint as="offset" />
          </mxGeometry>
        </mxCell>
        <mxCell id="D_i69omSW4-4UMKgqZ6J-21" value="" style="html=1;points=[];perimeter=orthogonalPerimeter;strokeColor=none;fillColor=#484848;direction=south;fontFamily=Montserrat Semibold;" parent="1" vertex="1">
          <mxGeometry x="260" y="170" width="80" height="5" as="geometry" />
        </mxCell>
        <mxCell id="D_i69omSW4-4UMKgqZ6J-22" value="" style="html=1;points=[];perimeter=orthogonalPerimeter;strokeColor=none;fillColor=#484848;direction=south;fontFamily=Montserrat Semibold;" parent="1" vertex="1">
          <mxGeometry x="262.5" y="440" width="80" height="5" as="geometry" />
        </mxCell>
        <mxCell id="D_i69omSW4-4UMKgqZ6J-23" value="" style="edgeStyle=orthogonalEdgeStyle;rounded=0;orthogonalLoop=1;jettySize=auto;html=1;strokeColor=#484848;entryX=0.5;entryY=0;entryDx=0;entryDy=0;exitX=0.874;exitY=0.5;exitDx=0;exitDy=0;exitPerimeter=0;fontFamily=Montserrat Semibold;" parent="1" source="D_i69omSW4-4UMKgqZ6J-22" target="D_i69omSW4-4UMKgqZ6J-13" edge="1">
          <mxGeometry x="-0.1111" relative="1" as="geometry">
            <mxPoint x="302.5" y="450" as="sourcePoint" />
            <mxPoint x="332.5" y="457.41999999999985" as="targetPoint" />
            <Array as="points" />
            <mxPoint as="offset" />
          </mxGeometry>
        </mxCell>
        <mxCell id="6UbJSReIe_Cn7X1c4ERg-1" value="&lt;font color=&quot;#484848&quot;&gt;&lt;b&gt;Lemmatize and &lt;br&gt;lowercase token&lt;/b&gt;&lt;/font&gt;" style="html=1;align=center;verticalAlign=top;rounded=1;absoluteArcSize=1;arcSize=10;dashed=0;fillColor=#FFFFFF;strokeColor=#484848;fontFamily=Montserrat Semibold;" parent="1" vertex="1">
          <mxGeometry x="460" y="190" width="135" height="40" as="geometry" />
        </mxCell>
        <mxCell id="6UbJSReIe_Cn7X1c4ERg-2" value="" style="rhombus;strokeColor=#484848;fillColor=#FFFFFF;aspect=fixed;direction=north;rotation=90;fontFamily=Montserrat Semibold;" parent="1" vertex="1">
          <mxGeometry x="290" y="190" width="20" height="40" as="geometry" />
        </mxCell>
        <mxCell id="6UbJSReIe_Cn7X1c4ERg-3" value="&lt;font size=&quot;1&quot; face=&quot;montserrat&quot; color=&quot;#484848&quot;&gt;&lt;b&gt;Token is not valid &lt;br&gt;for correction&lt;/b&gt;&lt;/font&gt;" style="edgeStyle=orthogonalEdgeStyle;rounded=0;orthogonalLoop=1;jettySize=auto;html=1;strokeColor=#484848;exitX=0;exitY=0.5;exitDx=0;exitDy=0;fontFamily=Montserrat Semibold;entryX=-0.111;entryY=0.695;entryDx=0;entryDy=0;entryPerimeter=0;" parent="1" source="6UbJSReIe_Cn7X1c4ERg-2" target="D_i69omSW4-4UMKgqZ6J-22" edge="1">
          <mxGeometry x="-0.2169" relative="1" as="geometry">
            <mxPoint x="125" y="360" as="sourcePoint" />
            <mxPoint x="120" y="670" as="targetPoint" />
            <Array as="points">
              <mxPoint x="130" y="210" />
              <mxPoint x="130" y="430" />
              <mxPoint x="287" y="430" />
            </Array>
            <mxPoint as="offset" />
          </mxGeometry>
        </mxCell>
        <mxCell id="6UbJSReIe_Cn7X1c4ERg-4" value="&lt;font color=&quot;#484848&quot; face=&quot;montserrat&quot; size=&quot;1&quot;&gt;&lt;b&gt;Token is valid &lt;br&gt;for correction&lt;/b&gt;&lt;br&gt;&lt;/font&gt;" style="edgeStyle=orthogonalEdgeStyle;rounded=0;orthogonalLoop=1;jettySize=auto;html=1;strokeColor=#484848;exitX=1;exitY=0.5;exitDx=0;exitDy=0;fontFamily=Montserrat Semibold;entryX=0;entryY=0.5;entryDx=0;entryDy=0;" parent="1" source="6UbJSReIe_Cn7X1c4ERg-2" target="6UbJSReIe_Cn7X1c4ERg-1" edge="1">
          <mxGeometry relative="1" as="geometry">
            <mxPoint x="165" y="360" as="sourcePoint" />
            <mxPoint x="240" y="310" as="targetPoint" />
            <Array as="points" />
            <mxPoint as="offset" />
          </mxGeometry>
        </mxCell>
        <mxCell id="6UbJSReIe_Cn7X1c4ERg-5" value="&lt;font color=&quot;#484848&quot; face=&quot;montserrat&quot; size=&quot;1&quot;&gt;&lt;b&gt;&lt;br&gt;&lt;/b&gt;&lt;/font&gt;" style="edgeStyle=orthogonalEdgeStyle;rounded=0;orthogonalLoop=1;jettySize=auto;html=1;strokeColor=#484848;exitX=0.5;exitY=1;exitDx=0;exitDy=0;entryX=0.5;entryY=0;entryDx=0;entryDy=0;fontFamily=Montserrat Semibold;" parent="1" source="6UbJSReIe_Cn7X1c4ERg-1" target="D_i69omSW4-4UMKgqZ6J-5" edge="1">
          <mxGeometry x="0.4118" relative="1" as="geometry">
            <mxPoint x="165" y="360" as="sourcePoint" />
            <mxPoint x="215" y="525" as="targetPoint" />
            <Array as="points" />
            <mxPoint as="offset" />
          </mxGeometry>
        </mxCell>
        <mxCell id="hUnicEeS3wmVeeKwf4dj-2" value="&lt;font color=&quot;#484848&quot;&gt;&lt;b&gt;Restore the form of the original word &lt;br&gt;to the selected candidate&lt;/b&gt;&lt;/font&gt;" style="html=1;align=center;verticalAlign=top;rounded=1;absoluteArcSize=1;arcSize=10;dashed=0;fillColor=#FFFFFF;strokeColor=#484848;fontFamily=Montserrat Semibold;" vertex="1" parent="1">
          <mxGeometry x="153.75" y="374" width="297.5" height="40" as="geometry" />
        </mxCell>
        <mxCell id="hUnicEeS3wmVeeKwf4dj-3" value="" style="rounded=0;orthogonalLoop=1;jettySize=auto;html=1;strokeColor=#484848;exitX=0.5;exitY=1;exitDx=0;exitDy=0;fontFamily=Montserrat Semibold;entryX=-0.072;entryY=0.504;entryDx=0;entryDy=0;entryPerimeter=0;" edge="1" parent="1" source="hUnicEeS3wmVeeKwf4dj-2" target="D_i69omSW4-4UMKgqZ6J-22">
          <mxGeometry x="-0.1111" relative="1" as="geometry">
            <mxPoint x="313" y="454" as="sourcePoint" />
            <mxPoint x="300" y="430" as="targetPoint" />
            <mxPoint as="offset" />
          </mxGeometry>
        </mxCell>
      </root>
    </mxGraphModel>
  </diagram>
</mxfile>
